<svg id="Component_3_1" data-name="Component 3 – 1" xmlns="http://www.w3.org/2000/svg" width="1641" height="328" viewBox="0 0 1641 328">
  <text id="_139_RUNNER" data-name="139 $RUNNER" transform="translate(924 162)" fill="#fff" font-size="14" font-family="FranklinGothicURW-Dem, FranklinGothic URW"><tspan x="0" y="0">139 $RUNNER</tspan></text>
  <g id="Component_2_1" data-name="Component 2 – 1">
    <g id="Rectangle_73" data-name="Rectangle 73" transform="translate(0 278)" fill="#1c1c1c" stroke="#3d3d3d" stroke-width="1">
      <rect width="36" height="2" stroke="none"/>
      <rect x="0.5" y="0.5" width="35" height="1" fill="none"/>
    </g>
    <g id="Rectangle_73-2" data-name="Rectangle 73" transform="translate(59 278)" fill="#1c1c1c" stroke="#3d3d3d" stroke-width="1">
      <rect width="36" height="2" stroke="none"/>
      <rect x="0.5" y="0.5" width="35" height="1" fill="none"/>
    </g>
    <g id="Rectangle_73-3" data-name="Rectangle 73" transform="translate(118 276)" fill="#1c1c1c" stroke="#3d3d3d" stroke-width="1">
      <rect width="36" height="4" stroke="none"/>
      <rect x="0.5" y="0.5" width="35" height="3" fill="none"/>
    </g>
    <g id="Rectangle_73-4" data-name="Rectangle 73" transform="translate(177 276)" fill="#1c1c1c" stroke="#3d3d3d" stroke-width="1">
      <rect width="36" height="4" stroke="none"/>
      <rect x="0.5" y="0.5" width="35" height="3" fill="none"/>
    </g>
    <g id="Rectangle_73-5" data-name="Rectangle 73" transform="translate(236 271)" fill="#1c1c1c" stroke="#3d3d3d" stroke-width="1">
      <rect width="36" height="9" stroke="none"/>
      <rect x="0.5" y="0.5" width="35" height="8" fill="none"/>
    </g>
    <g id="Rectangle_73-6" data-name="Rectangle 73" transform="translate(297 271)" fill="#1c1c1c" stroke="#3d3d3d" stroke-width="1">
      <rect width="36" height="9" stroke="none"/>
      <rect x="0.5" y="0.5" width="35" height="8" fill="none"/>
    </g>
    <g id="Rectangle_73-7" data-name="Rectangle 73" transform="translate(356 271)" fill="#1c1c1c" stroke="#3d3d3d" stroke-width="1">
      <rect width="36" height="9" stroke="none"/>
      <rect x="0.5" y="0.5" width="35" height="8" fill="none"/>
    </g>
    <g id="Rectangle_73-8" data-name="Rectangle 73" transform="translate(416 267)" fill="#1c1c1c" stroke="#3d3d3d" stroke-width="1">
      <rect width="36" height="13" stroke="none"/>
      <rect x="0.5" y="0.5" width="35" height="12" fill="none"/>
    </g>
    <g id="Rectangle_73-9" data-name="Rectangle 73" transform="translate(475 267)" fill="#1c1c1c" stroke="#3d3d3d" stroke-width="1">
      <rect width="36" height="13" stroke="none"/>
      <rect x="0.5" y="0.5" width="35" height="12" fill="none"/>
    </g>
    <g id="Rectangle_73-10" data-name="Rectangle 73" transform="translate(535 263)" fill="#1c1c1c" stroke="#3d3d3d" stroke-width="1">
      <rect width="36" height="17" stroke="none"/>
      <rect x="0.5" y="0.5" width="35" height="16" fill="none"/>
    </g>
    <g id="Rectangle_73-11" data-name="Rectangle 73" transform="translate(594 258)" fill="#1c1c1c" stroke="#3d3d3d" stroke-width="1">
      <rect width="36" height="22" stroke="none"/>
      <rect x="0.5" y="0.5" width="35" height="21" fill="none"/>
    </g>
    <g id="Rectangle_73-12" data-name="Rectangle 73" transform="translate(653 254)" fill="#1c1c1c" stroke="#3d3d3d" stroke-width="1">
      <rect width="36" height="26" stroke="none"/>
      <rect x="0.5" y="0.5" width="35" height="25" fill="none"/>
    </g>
    <g id="Rectangle_73-13" data-name="Rectangle 73" transform="translate(713 245)" fill="#1c1c1c" stroke="#3d3d3d" stroke-width="1">
      <rect width="36" height="35" stroke="none"/>
      <rect x="0.5" y="0.5" width="35" height="34" fill="none"/>
    </g>
    <g id="Rectangle_73-14" data-name="Rectangle 73" transform="translate(772 236)" fill="#1c1c1c" stroke="#3d3d3d" stroke-width="1">
      <rect width="36" height="44" stroke="none"/>
      <rect x="0.5" y="0.5" width="35" height="43" fill="none"/>
    </g>
    <g id="Rectangle_73-15" data-name="Rectangle 73" transform="translate(832 228)" fill="#1c1c1c" stroke="#3d3d3d" stroke-width="1">
      <rect width="36" height="52" stroke="none"/>
      <rect x="0.5" y="0.5" width="35" height="51" fill="none"/>
    </g>
    <g id="Rectangle_73-16" data-name="Rectangle 73" transform="translate(891 219)" fill="#1c1c1c" stroke="#3d3d3d" stroke-width="1">
      <rect width="36" height="61" stroke="none"/>
      <rect x="0.5" y="0.5" width="35" height="60" fill="none"/>
    </g>
    <g id="Rectangle_73-17" data-name="Rectangle 73" transform="translate(951 210)" fill="#eff855" stroke="#bec729" stroke-width="1">
      <rect width="36" height="70" stroke="none"/>
      <rect x="0.5" y="0.5" width="35" height="69" fill="none"/>
    </g>
    <g id="Rectangle_73-18" data-name="Rectangle 73" transform="translate(1010 196)" fill="#1c1c1c" stroke="#3d3d3d" stroke-width="1">
      <rect width="36" height="84" stroke="none"/>
      <rect x="0.5" y="0.5" width="35" height="83" fill="none"/>
    </g>
    <g id="Rectangle_73-19" data-name="Rectangle 73" transform="translate(1069 187)" fill="#1c1c1c" stroke="#3d3d3d" stroke-width="1">
      <rect width="36" height="93" stroke="none"/>
      <rect x="0.5" y="0.5" width="35" height="92" fill="none"/>
    </g>
    <g id="Rectangle_73-20" data-name="Rectangle 73" transform="translate(1129 170)" fill="#1c1c1c" stroke="#3d3d3d" stroke-width="1">
      <rect width="36" height="110" stroke="none"/>
      <rect x="0.5" y="0.5" width="35" height="109" fill="none"/>
    </g>
    <g id="Rectangle_73-21" data-name="Rectangle 73" transform="translate(1188 155)" fill="#1c1c1c" stroke="#3d3d3d" stroke-width="1">
      <rect width="36" height="125" stroke="none"/>
      <rect x="0.5" y="0.5" width="35" height="124" fill="none"/>
    </g>
    <g id="Rectangle_73-22" data-name="Rectangle 73" transform="translate(1248 140)" fill="#1c1c1c" stroke="#3d3d3d" stroke-width="1">
      <rect width="36" height="140" stroke="none"/>
      <rect x="0.5" y="0.5" width="35" height="139" fill="none"/>
    </g>
    <g id="Rectangle_73-23" data-name="Rectangle 73" transform="translate(1307 120)" fill="#1c1c1c" stroke="#3d3d3d" stroke-width="1">
      <rect width="36" height="160" stroke="none"/>
      <rect x="0.5" y="0.5" width="35" height="159" fill="none"/>
    </g>
    <g id="Rectangle_73-24" data-name="Rectangle 73" transform="translate(1368 98)" fill="#1c1c1c" stroke="#3d3d3d" stroke-width="1">
      <rect width="36" height="182" stroke="none"/>
      <rect x="0.5" y="0.5" width="35" height="181" fill="none"/>
    </g>
    <g id="Rectangle_73-25" data-name="Rectangle 73" transform="translate(1427 74)" fill="#1c1c1c" stroke="#3d3d3d" stroke-width="1">
      <rect width="36" height="206" stroke="none"/>
      <rect x="0.5" y="0.5" width="35" height="205" fill="none"/>
    </g>
    <g id="Rectangle_73-26" data-name="Rectangle 73" transform="translate(1486 52)" fill="#1c1c1c" stroke="#3d3d3d" stroke-width="1">
      <rect width="36" height="228" stroke="none"/>
      <rect x="0.5" y="0.5" width="35" height="227" fill="none"/>
    </g>
    <g id="Rectangle_73-27" data-name="Rectangle 73" transform="translate(1545 26)" fill="#1c1c1c" stroke="#3d3d3d" stroke-width="1">
      <rect width="36" height="254" stroke="none"/>
      <rect x="0.5" y="0.5" width="35" height="253" fill="none"/>
    </g>
    <g id="Rectangle_73-28" data-name="Rectangle 73" transform="translate(1604)" fill="#1c1c1c" stroke="#3d3d3d" stroke-width="1">
      <rect width="36" height="280" stroke="none"/>
      <rect x="0.5" y="0.5" width="35" height="279" fill="none"/>
    </g>
    <text id="_0.00" data-name="$0.00" transform="translate(0 323)" fill="#fff" font-size="14" font-family="FranklinGothicURW-Dem, FranklinGothic URW" opacity="0.65"><tspan x="0" y="0">$0.00</tspan></text>
    <text id="_21_750.00" data-name="$21,750.00" transform="translate(1567 323)" fill="#fff" font-size="14" font-family="FranklinGothicURW-Dem, FranklinGothic URW" opacity="0.65"><tspan x="0" y="0">$21,750.00</tspan></text>
    <text id="_13_050.00" data-name="$13,050.00" transform="translate(933 323)" fill="#fff" font-size="14" font-family="FranklinGothicURW-Dem, FranklinGothic URW"><tspan x="0" y="0">$13,050.00</tspan></text>
    <line id="Line_12" data-name="Line 12" x2="1640" transform="translate(0.5 289.5)" fill="none" stroke="#3d3d3d" stroke-width="1"/>
    <line id="Line_13" data-name="Line 13" y1="40" transform="translate(969.5 170.5)" fill="none" stroke="#bec729" stroke-width="1"/>
    <line id="Line_16" data-name="Line 16" x2="36" transform="translate(951.5 289.5)" fill="none" stroke="#bec729" stroke-width="1"/>
  </g>
</svg>
